<svg width="281" height="68" viewBox="0 0 281 68" fill="none" xmlns="http://www.w3.org/2000/svg">
<path d="M64.07 13.95H79.69C84.3467 13.95 88.0133 15.0867 90.69 17.36C93.3667 19.6333 94.705 22.75 94.705 26.71C94.705 30.67 93.3667 33.805 90.69 36.115C88.0133 38.3883 84.3467 39.525 79.69 39.525H72.43V53H64.07V13.95ZM79.195 32.485C81.4317 32.485 83.1367 31.99 84.31 31C85.52 30.01 86.125 28.58 86.125 26.71C86.125 24.84 85.52 23.4283 84.31 22.475C83.1367 21.485 81.4317 20.99 79.195 20.99H72.43V32.485H79.195ZM108.686 53.66C105.57 53.66 103.058 52.945 101.151 51.515C99.2812 50.085 98.3462 48.1233 98.3462 45.63C98.3462 43.1 99.1345 41.12 100.711 39.69C102.288 38.2233 104.726 37.16 108.026 36.5L117.541 34.63C117.541 30.78 115.855 28.855 112.481 28.855C109.438 28.855 107.641 30.2667 107.091 33.09L98.8412 32.705C99.3912 29.4783 100.84 27.04 103.186 25.39C105.533 23.7033 108.631 22.86 112.481 22.86C116.881 22.86 120.2 23.905 122.436 25.995C124.673 28.085 125.791 31.1467 125.791 35.18V45.245C125.791 46.0517 125.92 46.6017 126.176 46.895C126.433 47.1883 126.855 47.335 127.441 47.335H128.266V53C127.533 53.22 126.543 53.33 125.296 53.33C121.63 53.33 119.485 51.735 118.861 48.545C118.091 50.1217 116.808 51.3683 115.011 52.285C113.251 53.2017 111.143 53.66 108.686 53.66ZM110.666 47.995C112.756 47.995 114.425 47.39 115.671 46.18C116.918 44.97 117.541 43.32 117.541 41.23V39.8L110.831 41.23C108.155 41.78 106.816 42.99 106.816 44.86C106.816 45.85 107.146 46.62 107.806 47.17C108.466 47.72 109.42 47.995 110.666 47.995ZM133.293 23.52H140.718L140.883 28.36C142.423 24.6933 145.338 22.86 149.628 22.86C152.781 22.86 155.238 23.8683 156.998 25.885C158.758 27.865 159.638 30.5783 159.638 34.025V53H151.388V36.775C151.388 34.2817 151.04 32.43 150.343 31.22C149.683 30.01 148.528 29.405 146.878 29.405C145.155 29.405 143.835 30.0467 142.918 31.33C142.001 32.6133 141.543 34.4283 141.543 36.775V53H133.293V23.52ZM179.583 53.66C176.613 53.66 174.01 53.0367 171.773 51.79C169.536 50.5067 167.795 48.71 166.548 46.4C165.338 44.0533 164.733 41.34 164.733 38.26C164.733 35.18 165.338 32.485 166.548 30.175C167.758 27.8283 169.481 26.0317 171.718 24.785C173.955 23.5017 176.558 22.86 179.528 22.86C182.425 22.86 184.955 23.5017 187.118 24.785C189.318 26.0683 191.005 27.92 192.178 30.34C193.351 32.7233 193.938 35.5467 193.938 38.81V40.46H173.258C173.331 42.7333 173.936 44.4567 175.073 45.63C176.21 46.8033 177.768 47.39 179.748 47.39C182.608 47.39 184.441 46.1983 185.248 43.815L193.553 44.31C192.746 47.2433 191.096 49.535 188.603 51.185C186.146 52.835 183.14 53.66 179.583 53.66ZM185.523 35.4C185.413 33.31 184.826 31.715 183.763 30.615C182.7 29.515 181.288 28.965 179.528 28.965C177.805 28.965 176.375 29.5333 175.238 30.67C174.138 31.8067 173.478 33.3833 173.258 35.4H185.523ZM207.165 53C202.032 53 199.465 50.4333 199.465 45.3V13.95H207.715V44.42C207.715 45.2633 207.898 45.8867 208.265 46.29C208.668 46.6567 209.273 46.84 210.08 46.84H212.06V53H207.165ZM224.675 53C219.541 53 216.975 50.4333 216.975 45.3V13.95H225.225V44.42C225.225 45.2633 225.408 45.8867 225.775 46.29C226.178 46.6567 226.783 46.84 227.59 46.84H229.57V53H224.675ZM235.022 23.52H243.272V53H235.022V23.52ZM234.857 13.29H243.382V19.89H234.857V13.29ZM263.751 53.66C260.781 53.66 258.159 53.0367 255.886 51.79C253.612 50.5067 251.852 48.71 250.606 46.4C249.396 44.0533 248.791 41.34 248.791 38.26C248.791 35.18 249.414 32.485 250.661 30.175C251.907 27.8283 253.649 26.0317 255.886 24.785C258.159 23.5017 260.781 22.86 263.751 22.86C266.721 22.86 269.324 23.5017 271.561 24.785C273.834 26.0317 275.594 27.8283 276.841 30.175C278.087 32.485 278.711 35.18 278.711 38.26C278.711 41.34 278.087 44.0533 276.841 46.4C275.631 48.71 273.889 50.5067 271.616 51.79C269.342 53.0367 266.721 53.66 263.751 53.66ZM263.751 47.335C265.804 47.335 267.381 46.5467 268.481 44.97C269.617 43.3567 270.186 41.12 270.186 38.26C270.186 35.4 269.617 33.1817 268.481 31.605C267.381 29.9917 265.804 29.185 263.751 29.185C261.697 29.185 260.102 29.9917 258.966 31.605C257.829 33.1817 257.261 35.4 257.261 38.26C257.261 41.12 257.829 43.3567 258.966 44.97C260.102 46.5467 261.697 47.335 263.751 47.335Z" fill="white"/>
<path d="M5.68835 30.5578H14.3841C17.9822 30.7625 21.4051 32.18 24.0942 34.5797L24.4203 34.9421C26.8325 37.6232 28.2519 41.0506 28.4419 44.6522V53.3115C28.4419 54.8201 29.0413 56.2671 30.108 57.3338C31.1748 58.4005 32.6218 59 34.1305 59H44.3116C45.8202 59 47.2671 58.4005 48.3339 57.3338C49.4007 56.2671 50 54.8201 50 53.3115V43.1304C50 41.6218 49.4007 40.1749 48.3339 39.1082C47.2671 38.0414 45.8202 37.4421 44.3116 37.4421H35.6522C32.0506 37.2519 28.6232 35.8323 25.9419 33.4202L25.5797 33.0941C23.1751 30.4083 21.7568 26.9837 21.5579 23.384V14.6884C21.5579 13.1798 20.9587 11.7329 19.892 10.6661C18.825 9.59936 17.3782 9 15.8695 9H5.68835C4.17966 9 2.73288 9.59936 1.6661 10.6661C0.599332 11.7329 0 13.1798 0 14.6884V24.8697C0 26.3782 0.599332 27.825 1.6661 28.8918C2.73288 29.9585 4.17966 30.5578 5.68835 30.5578Z" fill="white"/>
<path d="M43.4272 9H33.5248C30.4693 9 27.9922 11.4766 27.9922 14.5324V24.4348C27.9922 27.4904 30.4693 29.9676 33.5248 29.9676H43.4272C46.4829 29.9676 48.9599 27.4904 48.9599 24.4348V14.5324C48.9599 11.4766 46.4829 9 43.4272 9Z" fill="white"/>
<path d="M15.435 37.5625H5.53259C2.4771 37.5625 0 40.0391 0 43.0949V52.9973C0 56.0529 2.4771 58.5301 5.53259 58.5301H15.435C18.4907 58.5301 20.9677 56.0529 20.9677 52.9973V43.0949C20.9677 40.0391 18.4907 37.5625 15.435 37.5625Z" fill="white"/>
</svg>
